# xmcd
#
# Track frame offsets:
#	150
#	12022
#	34835
#	51457
#	72267
#	87937
#	103482
#	115132
#	125370
#	142937
#	153792
#	170857
#	180720
#	201905
#	212672
#
# Disc length: 3040 seconds
#
# Revision: 1
# Processed by: cddbd v1.5.1PL2 Copyright (c) Steve Scherf et al.
# Submitted via: audiograbber 1.83.01
#
DISCID=d60bde0f
DTITLE=Various Artist - Southern Gospel: You Better Believe It! 2
DYEAR=1996
DGENRE=Southern Gospel
TTITLE0=The Cathedrals - Can He, Could He, Would He
TTITLE1=Gaither Vocal Band - Yes I Know
TTITLE2=Brian Free and Assurance - Don't Be Caught Dead Without Jesus
TTITLE3=Kirk Talley - If He Hung The Moon
TTITLE4=The New Hinsons - Cross Over
TTITLE5=Vern Jackson - Here Today, Home Tomorrow
TTITLE6=The Martins - Only God Knows
TTITLE7=Gold City - Higher Than The Moon
TTITLE8=The Bishops - You Can't Ask Too Much Of My God
TTITLE9=Jeff and Sheri Easter - Go Ahead And Throw
TTITLE10=Carroll Roberson - A Wonderful Life
TTITLE11=Phil Cross and Poet Voices - God Says I Will
TTITLE12=The Spencers - He Still Rolls The Stone Away
TTITLE13=The McGruders - Live By Faith
TTITLE14=Squire Parsons - I Call It Home
EXTD=Artist Sampler
EXTT0=
EXTT1=
EXTT2=
EXTT3=
EXTT4=
EXTT5=
EXTT6=
EXTT7=
EXTT8=
EXTT9=
EXTT10=
EXTT11=
EXTT12=
EXTT13=
EXTT14=
PLAYORDER=
